<svg xmlns="http://www.w3.org/2000/svg" id="eEc4CUyDHgf1" viewBox="0 0 400 360" shape-rendering="geometricPrecision" text-rendering="geometricPrecision"><g id="eEc4CUyDHgf2" clip-path="url(#eEc4CUyDHgf120)"><g id="eEc4CUyDHgf3" style="isolation:isolate"><g id="eEc4CUyDHgf4" transform="matrix(0.979934 -0.011346 0.011577 0.999933 -1.821658 1.186894)" stroke="#A9C45A" stroke-width="2" stroke-linecap="round" stroke-linejoin="round"><path id="eEc4CUyDHgf5" d="M102.633,332.859C102.633,332.859,96.8006,315.068,89.2006,308.238C88.3821,309.975,87.3398,311.596,86.1006,313.059L84.8006,305.426C84.8006,305.426,69.6006,288.952,58.0006,288.149C57.2006,292.97,54.0006,298.193,54.0006,298.193L51.2006,285.336C51.2006,285.336,33.6006,278.506,25.6006,280.113C25.2006,282.926,24.4006,286.943,24.0006,290.559C22.0006,287.345,18.4006,280.917,18.4006,280.917C18.4006,280.917,5.60063,282.926,0.400635,287.747C0.400635,292.167,9.20063,307.033,14.0006,311.051C17.2006,309.845,24.0006,309.042,24.0006,309.042L16.4006,316.274C16.4006,316.274,28.4006,330.336,32.0006,330.336C34.4006,329.533,42.0006,326.318,42.0006,326.318L38.4006,333.149C38.4006,333.149,47.6686,337.793,102.633,332.859Z" fill="#D4E1AC"/><path id="eEc4CUyDHgf6" d="M0.400635,287.747C0.400635,287.747,80.4006,329.131,102.801,333.149" fill="none"/><path id="eEc4CUyDHgf7" d="M13.6001,286.14L18.5241,296.912" fill="none"/><path id="eEc4CUyDHgf8" d="M37.6001,287.747L43.2081,308.945" fill="none"/><path id="eEc4CUyDHgf9" d="M66,299.398L71.096,321.694" fill="none"/><path id="eEc4CUyDHgf10" d="M53.2,329.131L74.9759,323.357" fill="none"/><path id="eEc4CUyDHgf11" d="M29.2,319.89L48.2879,311.344" fill="none"/><path id="eEc4CUyDHgf12" d="M11.2,299.399L21.408,298.346" fill="none"/></g><path id="eEc4CUyDHgf13" d="M360.148,151.278C364.257,139.522,336.785,119.13,298.787,105.731C260.79,92.3317,226.656,90.9996,222.547,102.756C218.439,114.511,245.911,134.904,283.908,148.303C321.906,161.702,356.04,163.034,360.148,151.278Z" fill="#FFF" stroke="#1D1E26" stroke-width="1.992" stroke-linecap="round" stroke-linejoin="round"/><path id="eEc4CUyDHgf14" d="M360.148,151.278C364.257,139.522,336.785,119.13,298.787,105.731C260.79,92.3317,226.656,90.9996,222.547,102.756C218.439,114.511,245.911,134.904,283.908,148.303C321.906,161.702,356.04,163.034,360.148,151.278Z" fill="#FFF" stroke="#1D1E26" stroke-width="1.992" stroke-linecap="round" stroke-linejoin="round"/><path id="eEc4CUyDHgf15" d="M334.814,151.985C336.993,145.705,317.856,133.298,292.071,124.274C266.287,115.25,243.618,113.025,241.44,119.305C239.261,125.585,258.398,137.992,284.182,147.016C309.967,156.041,332.636,158.265,334.814,151.985Z" fill="#1D1E26" stroke="none" stroke-width="1"/><path id="eEc4CUyDHgf16" d="M233.524,113.167C235.448,113.167,237.008,111.6,237.008,109.668C237.008,107.735,235.448,106.168,233.524,106.168C231.6,106.168,230.04,107.735,230.04,109.668C230.04,111.6,231.6,113.167,233.524,113.167Z" fill="#1D1E26" stroke="none" stroke-width="1"/><path id="eEc4CUyDHgf17" d="M346.976,152.872C348.9,152.872,350.46,151.305,350.46,149.372C350.46,147.439,348.9,145.873,346.976,145.873C345.052,145.873,343.492,147.439,343.492,149.372C343.492,151.305,345.052,152.872,346.976,152.872Z" fill="#1D1E26" stroke="none" stroke-width="1"/><path id="eEc4CUyDHgf18" d="M259.188,109.282C261.112,109.282,262.672,107.715,262.672,105.782C262.672,103.85,261.112,102.283,259.188,102.283C257.264,102.283,255.704,103.85,255.704,105.782C255.704,107.715,257.264,109.282,259.188,109.282Z" fill="#1D1E26" stroke="none" stroke-width="1"/><path id="eEc4CUyDHgf19" d="M329.272,133.811C331.196,133.811,332.756,132.244,332.756,130.311C332.756,128.378,331.196,126.812,329.272,126.812C327.348,126.812,325.788,128.378,325.788,130.311C325.788,132.244,327.348,133.811,329.272,133.811Z" fill="#1D1E26" stroke="none" stroke-width="1"/><path id="eEc4CUyDHgf20" d="M295.18,118.173C297.104,118.173,298.664,116.607,298.664,114.674C298.664,112.741,297.104,111.174,295.18,111.174C293.256,111.174,291.696,112.741,291.696,114.674C291.696,116.607,293.256,118.173,295.18,118.173Z" fill="#1D1E26" stroke="none" stroke-width="1"/><path id="eEc4CUyDHgf21" d="M331.817,155.092L331.657,155.036C333.548,148.92,315.166,136.975,290.437,128.271C265.708,119.568,243.956,117.396,241.674,123.371L241.51,123.314L112.261,333L304.238,333L331.817,155.092Z" opacity="0.831667" fill="#252629" fill-opacity=".8" stroke="none" stroke-width="1"/><path id="eEc4CUyDHgf22" d="M388.293,332L69.6898,332C65.2183,332,61.5947,335.134,61.5947,339C61.5947,342.866,65.2183,346,69.6898,346L139.33,346C134.858,346,131.235,349.134,131.235,353C131.235,356.866,134.858,360,139.33,360L336.471,360C340.942,360,344.566,356.862,344.566,353C344.566,349.138,340.942,346,336.471,346L388.293,346C392.768,346,396.392,342.862,396.392,339C396.392,335.138,392.768,332,388.293,332Z" fill="#505053" stroke="none" stroke-width="1"/><path id="eEc4CUyDHgf23" d="M357.14,193.837C357.14,193.837,361.34,191.744,364.912,193.492C365.284,192.873,371.312,184.283,365.492,186.26C365.436,184.958,366.128,180.313,363.416,179.931C360.616,179.53,359.208,184.13,359.692,186.115C359.144,184.938,356.372,183.254,356.116,186.477C355.86,189.699,357.14,193.837,357.14,193.837Z" fill="#1D1E26" stroke="none" stroke-width="1" transform="matrix(0.984959 -0.172789 0.172789 0.984959 -28.047255 65.472922)"/><path id="eEc4CUyDHgf24" d="M340.52,265.319C338.958,264.994,337.337,265.119,335.844,265.681C335.556,264.074,334.404,257.733,336.204,257.729C338.004,257.725,338.36,260.622,338.36,260.622C338.36,260.622,336.992,253.973,339.296,254.045C340.096,254.069,341.4,255.001,340.736,260.188C340.736,260.188,342.316,256.283,343.684,257.512C345.052,258.742,341.744,263.945,340.52,265.319Z" fill="#1D1E26" stroke="none" stroke-width="1" transform="matrix(0.995714 -0.092486 0.092486 0.995714 -23.022967 32.488109)"/><path id="eEc4CUyDHgf25" d="M389,239.733C389,239.733,384.764,237.986,382.124,239.002C381.812,237.283,380.568,230.412,382.524,230.412C384.48,230.412,384.46,233.534,384.46,233.534C384.46,233.534,383.38,226.354,385.868,226.43C386.72,226.458,388.14,227.463,387.424,233.068C387.424,233.068,389.132,228.849,390.624,230.175C392.116,231.501,390.32,238.259,389,239.733Z" fill="#1D1E26" stroke="none" stroke-width="1" transform="matrix(0.998528 -0.054242 0.054242 0.998528 -12.311633 21.304155)"/><g id="eEc4CUyDHgf26"><path id="eEc4CUyDHgf27" d="M379,246.363L379,264.701C379,265.644,378.627,266.549,377.963,267.216C377.3,267.884,376.399,268.259,375.46,268.26L373,268.26L373,207.792C373,204.648,371.757,201.633,369.544,199.411C367.331,197.188,364.329,195.939,361.2,195.939C358.07,195.939,355.069,197.188,352.856,199.411C350.643,201.633,349.4,204.648,349.4,207.792L349.4,295.18L345.956,295.18C345.172,295.18,344.42,294.867,343.866,294.31C343.311,293.754,343,292.998,343,292.211L343,271.475C343,270.302,342.536,269.178,341.711,268.35C340.886,267.521,339.767,267.055,338.6,267.055C337.433,267.055,336.314,267.521,335.489,268.35C334.664,269.178,334.2,270.302,334.2,271.475L334.2,297.591C334.2,299.296,334.874,300.931,336.074,302.136C337.275,303.342,338.903,304.019,340.6,304.019L349.4,304.019L349.4,332.144L373,332.144L373,279.912L379,279.912C382.076,279.912,385.027,278.685,387.202,276.499C389.378,274.314,390.6,271.351,390.6,268.26L390.6,268.26L390.6,246.363C390.6,244.818,389.989,243.336,388.901,242.244C387.813,241.151,386.338,240.537,384.8,240.537L384.8,240.537C383.262,240.537,381.786,241.151,380.699,242.244C379.611,243.336,379,244.818,379,246.363L379,246.363Z" fill="#A9C45A" stroke="none" stroke-width="1"/><g id="eEc4CUyDHgf28" mask="url(#eEc4CUyDHgf38)"><g id="eEc4CUyDHgf29"><g id="eEc4CUyDHgf30" fill="none" stroke="#FFF" stroke-width="2" stroke-linecap="round" stroke-linejoin="round"><path id="eEc4CUyDHgf31" d="M389,219.645L389,360.671"/><path id="eEc4CUyDHgf32" d="M381,219.645L381,360.671"/><path id="eEc4CUyDHgf33" d="M372.6,191.52L372.6,360.671"/><path id="eEc4CUyDHgf34" d="M364.6,191.52L364.6,360.671"/><path id="eEc4CUyDHgf35" d="M356.6,191.52L356.6,360.671"/><path id="eEc4CUyDHgf36" d="M349.595,191.52L349.595,360.671"/><path id="eEc4CUyDHgf37" d="M339.01,189.52L339.01,358.671"/></g></g><mask id="eEc4CUyDHgf38" mask-type="alpha"><path id="eEc4CUyDHgf39" d="M379,246.363L379,264.701C379,265.644,378.627,266.549,377.963,267.216C377.3,267.884,376.399,268.259,375.46,268.26L373,268.26L373,207.792C373,204.648,371.757,201.633,369.544,199.411C367.331,197.188,364.329,195.939,361.2,195.939C358.07,195.939,355.069,197.188,352.856,199.411C350.643,201.633,349.4,204.648,349.4,207.792L349.4,295.18L345.956,295.18C345.172,295.18,344.42,294.867,343.866,294.31C343.311,293.754,343,292.998,343,292.211L343,271.475C343,270.302,342.536,269.178,341.711,268.35C340.886,267.521,339.767,267.055,338.6,267.055C337.433,267.055,336.314,267.521,335.489,268.35C334.664,269.178,334.2,270.302,334.2,271.475L334.2,297.591C334.2,299.296,334.874,300.931,336.074,302.136C337.275,303.342,338.903,304.019,340.6,304.019L349.4,304.019L349.4,332.144L373,332.144L373,279.912L379,279.912C382.076,279.912,385.027,278.685,387.202,276.499C389.378,274.314,390.6,271.351,390.6,268.26L390.6,268.26L390.6,246.363C390.6,244.818,389.989,243.336,388.901,242.244C387.813,241.151,386.338,240.537,384.8,240.537L384.8,240.537C383.262,240.537,381.786,241.151,380.699,242.244C379.611,243.336,379,244.818,379,246.363L379,246.363Z" fill="#A9C45A" stroke="none" stroke-width="1"/></mask></g></g><path id="eEc4CUyDHgf40" d="M59.2001,268.06C59.2001,268.06,60.0001,262.033,67.6001,262.033C70.2841,262.033,66.4001,241.14,62.0001,243.149C57.6001,245.158,62.0001,251.988,62.0001,251.988C62.0001,251.988,52.0001,235.917,46.8001,241.14C42.8601,245.093,53.6001,258.417,53.6001,258.417C53.6001,258.417,47.2001,254.399,45.6001,256.81C44.0001,259.22,47.6001,264.042,59.2001,268.06Z" fill="#1D1E26" stroke="none" stroke-width="1" transform="matrix(0.996718 -0.080953 0.080953 0.996718 -21.15336 6.017674)"/><path id="eEc4CUyDHgf41" d="M114.4,252.791C114.4,252.791,121.2,247.568,127.6,255.202C130,251.184,135.2,240.738,131.6,238.327C128,235.916,125.2,243.148,125.2,243.148C125.2,243.148,129.6,225.47,123.2,225.068C116.8,224.666,118.4,241.541,118.4,241.541C118.4,241.541,114,229.086,110,232.3C106,235.515,114.4,252.791,114.4,252.791Z" fill="#1D1E26" stroke="none" stroke-width="1" transform="matrix(0.999058 -0.043401 0.043401 0.999058 -10.536945 5.476449)"/><path id="eEc4CUyDHgf42" d="M74,210.604C74,210.604,78.4,203.774,84.4,206.586C86,203.372,88,184.086,82.4,186.497C76.8,188.908,80,197.345,80,197.345C80,197.345,74.8,178.863,69.6,182.479C64.4,186.095,74,199.354,74,199.354C74,199.354,67.6,190.515,64,192.926C60.4,195.336,65.2,203.774,74,210.604Z" fill="#1D1E26" stroke="none" stroke-width="1" transform="matrix(0.987564 -0.157218 0.157218 0.987564 -31.399173 15.104806)"/><path id="eEc4CUyDHgf43" d="M322.02,30.3452C322.41,29.9538,322.409,29.3206,322.017,28.931C321.626,28.5413,320.993,28.5427,320.603,28.9341L318.848,30.6973L317.092,28.9341C316.703,28.5427,316.07,28.5413,315.678,28.931C315.287,29.3206,315.285,29.9538,315.675,30.3452L317.437,32.1146L315.675,33.8841C315.285,34.2755,315.287,34.9087,315.678,35.2983C316.07,35.688,316.703,35.6866,317.092,35.2952L318.848,33.532L320.603,35.2952C320.993,35.6866,321.626,35.688,322.017,35.2983C322.409,34.9087,322.41,34.2755,322.02,33.8841L320.259,32.1146L322.02,30.3452Z" clip-rule="evenodd" fill="#FFF" fill-rule="evenodd" stroke="none" stroke-width="1" transform="matrix(-0.490904 0.871214 -0.871214 -0.490904 503.349918 -229.904643)"/><path id="eEc4CUyDHgf44" d="M394.051,60.0776C394.44,59.6862,394.439,59.0531,394.047,58.6634C393.656,58.2737,393.023,58.2751,392.633,58.6665L390.878,60.4297L389.122,58.6665C388.733,58.2751,388.1,58.2737,387.708,58.6634C387.317,59.0531,387.315,59.6862,387.705,60.0776L389.467,61.8471L387.705,63.6165C387.315,64.0079,387.317,64.6411,387.708,65.0308C388.1,65.4204,388.733,65.419,389.122,65.0276L390.878,63.2644L392.633,65.0276C393.023,65.419,393.656,65.4204,394.047,65.0308C394.439,64.6411,394.44,64.0079,394.051,63.6165L392.289,61.8471L394.051,60.0776Z" clip-rule="evenodd" fill="#FFF" fill-rule="evenodd" stroke="none" stroke-width="1" transform="matrix(-0.490904 0.871214 -0.871214 -0.490904 636.643109 -248.330085)"/><path id="eEc4CUyDHgf45" d="M359.041,77.7558C359.43,77.3644,359.429,76.7313,359.037,76.3416C358.646,75.952,358.013,75.9534,357.623,76.3448L355.868,78.1079L354.112,76.3448C353.723,75.9534,353.09,75.952,352.698,76.3416C352.307,76.7313,352.305,77.3644,352.695,77.7558L354.457,79.5253L352.695,81.2948C352.305,81.6861,352.307,82.3193,352.698,82.709C353.09,83.0986,353.723,83.0972,354.112,82.7058L355.868,80.9427L357.623,82.7058C358.013,83.0972,358.646,83.0986,359.037,82.709C359.429,82.3193,359.43,81.6861,359.041,81.2948L357.279,79.5253L359.041,77.7558Z" clip-rule="evenodd" fill="#FFF" fill-rule="evenodd" stroke="none" stroke-width="1" transform="matrix(-0.490904 0.871214 -0.871214 -0.490904 599.848106 -191.472334)"/><path id="eEc4CUyDHgf46" d="M225.841,64.8989C226.23,64.5075,226.229,63.8743,225.837,63.4847C225.446,63.095,224.813,63.0964,224.423,63.4878L222.668,65.251L220.913,63.4878C220.523,63.0964,219.89,63.095,219.498,63.4847C219.107,63.8743,219.106,64.5075,219.495,64.8989L221.257,66.6684L219.495,68.4378C219.106,68.8292,219.107,69.4624,219.498,69.852C219.89,70.2417,220.523,70.2403,220.913,69.8489L222.668,68.0857L224.423,69.8489C224.813,70.2403,225.446,70.2417,225.837,69.852C226.229,69.4624,226.23,68.8292,225.841,68.4378L224.079,66.6684L225.841,64.8989Z" clip-rule="evenodd" fill="#FFF" fill-rule="evenodd" stroke="none" stroke-width="1" transform="matrix(-0.490904 0.871214 -0.871214 -0.490904 390.058852 -94.59529)"/><path id="eEc4CUyDHgf47" d="M379.441,35.1665C379.831,34.7751,379.829,34.1419,379.438,33.7523C379.046,33.3626,378.413,33.364,378.024,33.7554L376.268,35.5186L374.513,33.7554C374.123,33.364,373.49,33.3626,373.099,33.7523C372.707,34.1419,372.706,34.7751,373.096,35.1665L374.857,36.9359L373.096,38.7054C372.706,39.0968,372.707,39.73,373.099,40.1196C373.49,40.5093,374.123,40.5079,374.513,40.1165L376.268,38.3533L378.024,40.1165C378.413,40.5079,379.046,40.5093,379.438,40.1196C379.829,39.73,379.831,39.0968,379.441,38.7054L377.679,36.9359L379.441,35.1665Z" clip-rule="evenodd" fill="#FFF" fill-rule="evenodd" stroke="none" stroke-width="1" transform="matrix(-0.490904 0.871214 -0.871214 -0.490904 593.158968 -272.742217)"/><path id="eEc4CUyDHgf48" d="M285.753,49.7072C286.142,49.3157,286.141,48.6825,285.749,48.293C285.358,47.9035,284.725,47.9052,284.335,48.2967L282.58,50.061L280.825,48.2967C280.435,47.9052,279.802,47.9035,279.411,48.293C279.019,48.6825,279.018,49.3157,279.407,49.7072L281.169,51.479L279.407,53.2507C279.018,53.6423,279.019,54.2754,279.411,54.6649C279.802,55.0544,280.435,55.0528,280.825,54.6612L282.58,52.8969L284.335,54.6612C284.725,55.0528,285.358,55.0544,285.749,54.6649C286.141,54.2754,286.142,53.6423,285.753,53.2507L283.991,51.479L285.753,49.7072Z" clip-rule="evenodd" fill="#FFF" fill-rule="evenodd" stroke="none" stroke-width="1" transform="matrix(-0.490904 0.871214 -0.871214 -0.490904 466.148775 -169.437411)"/><path id="eEc4CUyDHgf49" d="M293.844,14.6128C293.844,14.6128,292.6,22.9458,288.864,24.6132C292.6,26.2807,293.844,34.6177,293.844,34.6177C293.844,34.6177,294.672,26.2807,298.82,24.6132C294.672,22.532,293.844,14.6128,293.844,14.6128Z" fill="none" stroke="#FFF" stroke-width="1" stroke-linecap="round" stroke-linejoin="round" opacity="0.536154"/><path id="eEc4CUyDHgf50" d="M373.844,113.452C373.844,113.452,372.6,121.785,368.864,123.453C372.6,125.12,373.844,133.457,373.844,133.457C373.844,133.457,374.672,125.12,378.82,123.453C374.672,121.371,373.844,113.452,373.844,113.452Z" fill="none" stroke="#FFF" stroke-width="1" stroke-linecap="round" stroke-linejoin="round" opacity="0.3035"/><path id="eEc4CUyDHgf51" d="M329.732,52.5938C329.732,52.5938,328.86,58.4277,326.248,59.5969C328.86,60.7621,329.732,66.596,329.732,66.596C329.732,66.596,330.312,60.7621,333.216,59.5969C330.312,58.1384,329.732,52.5938,329.732,52.5938Z" opacity="0.67175" fill="none" stroke="#FFF" stroke-width="1" stroke-linecap="round" stroke-linejoin="round"/><path id="eEc4CUyDHgf52" d="M353.16,17.4775C353.16,17.4775,352.496,21.8972,350.508,22.8012C352.496,23.7052,353.16,28.1249,353.16,28.1249C353.16,28.1249,353.6,23.7052,355.808,22.8012C353.6,21.6963,353.16,17.4775,353.16,17.4775Z" opacity="0.5" fill="none" stroke="#FFF" stroke-width="1" stroke-linecap="round" stroke-linejoin="round"/><path id="eEc4CUyDHgf53" d="M353.16,17.4775C353.16,17.4775,352.496,21.8972,350.508,22.8012C352.496,23.7052,353.16,28.1249,353.16,28.1249C353.16,28.1249,353.6,23.7052,355.808,22.8012C353.6,21.6963,353.16,17.4775,353.16,17.4775Z" transform="translate(-98.104 24.469)" opacity="0.9975" fill="none" stroke="#FFF" stroke-width="1" stroke-linecap="round" stroke-linejoin="round"/><path id="eEc4CUyDHgf54" d="M348.512,106.043C349.458,106.043,350.224,105.273,350.224,104.324C350.224,103.374,349.458,102.604,348.512,102.604C347.567,102.604,346.8,103.374,346.8,104.324C346.8,105.273,347.567,106.043,348.512,106.043Z" transform="matrix(0.903591 0 0 0.903591 33.599724 10.057734)" fill="none" stroke="#FFF" stroke-width="2" stroke-linecap="round" stroke-linejoin="round"/><path id="eEc4CUyDHgf55" d="M233.712,36.5345C234.658,36.5345,235.424,35.7646,235.424,34.8149C235.424,33.8651,234.658,33.0952,233.712,33.0952C232.767,33.0952,232,33.8651,232,34.8149C232,35.7646,232.767,36.5345,233.712,36.5345Z" fill="none" stroke="#FFF" stroke-width="2" stroke-linecap="round" stroke-linejoin="round" transform="matrix(1.589167 0 0 1.589167 -137.695319 -20.511749)"/><path id="eEc4CUyDHgf56" d="M274.112,20.8646C275.057,20.8646,275.824,20.0947,275.824,19.1449C275.824,18.1952,275.057,17.4253,274.112,17.4253C273.166,17.4253,272.4,18.1952,272.4,19.1449C272.4,20.0947,273.166,20.8646,274.112,20.8646Z" fill="none" stroke="#FFF" stroke-width="2" stroke-linecap="round" stroke-linejoin="round" transform="matrix(0.802 0 0 0.802 54.274176 3.7907)"/><path id="eEc4CUyDHgf57" d="M303.592,64.314C304.854,64.314,305.876,63.2868,305.876,62.0198C305.876,60.7527,304.854,59.7256,303.592,59.7256C302.331,59.7256,301.308,60.7527,301.308,62.0198C301.308,63.2868,302.331,64.314,303.592,64.314Z" fill="none" stroke="#FFF" stroke-width="2" stroke-linecap="round" stroke-linejoin="round" transform="matrix(0.7015 0 0 0.7015 90.622215 18.512911)"/><path id="eEc4CUyDHgf58" d="M325.632,8.63825C327.841,8.63825,329.632,6.8394,329.632,4.6204C329.632,2.40139,327.841,0.602539,325.632,0.602539C323.423,0.602539,321.632,2.40139,321.632,4.6204C321.632,6.8394,323.423,8.63825,325.632,8.63825Z" transform="translate(0 5)" fill="none" stroke="#FFF" stroke-width="2" stroke-linecap="round" stroke-linejoin="round"/><path id="eEc4CUyDHgf59" d="M386.952,95.1309C389.161,95.1309,390.952,93.3321,390.952,91.1131C390.952,88.8941,389.161,87.0952,386.952,87.0952C384.743,87.0952,382.952,88.8941,382.952,91.1131C382.952,93.3321,384.743,95.1309,386.952,95.1309Z" fill="none" stroke="#FFF" stroke-width="2" stroke-linecap="round" stroke-linejoin="round" transform="matrix(0.5025 0 0 0.5025 192.50862 45.328742)"/><path id="eEc4CUyDHgf60" d="M259.224,74.5193C260.329,74.5193,261.224,73.6199,261.224,72.5104C261.224,71.4009,260.329,70.5015,259.224,70.5015C258.12,70.5015,257.224,71.4009,257.224,72.5104C257.224,73.6199,258.12,74.5193,259.224,74.5193Z" fill="none" stroke="#FFF" stroke-width="2" stroke-linecap="round" stroke-linejoin="round" transform="matrix(1.366923 0 0 1.366923 -95.115267 -26.60574)"/><path id="eEc4CUyDHgf61" d="M355.864,49.3353C356.809,49.3353,357.576,48.5654,357.576,47.6156C357.576,46.6659,356.809,45.896,355.864,45.896C354.918,45.896,354.152,46.6659,354.152,47.6156C354.152,48.5654,354.918,49.3353,355.864,49.3353Z" fill="none" stroke="#FFF" stroke-width="2" stroke-linecap="round" stroke-linejoin="round" transform="translate(0 0)"/><g id="eEc4CUyDHgf62"><path id="eEc4CUyDHgf63" d="M98.536,332.546C98.536,332.546,57.556,276.196,63.936,268.461C69.736,261.43,82.936,271.876,94.936,292.368C83.336,268.26,68.136,216.832,81.736,212.412C95.336,207.993,108.136,276.698,107.336,284.734C110.136,261.832,116.38,252.028,123.336,259.019C129.736,265.448,118.336,318.885,122.336,332.546L98.536,332.546Z" fill="#A9C45A" stroke="none" stroke-width="1"/><g id="eEc4CUyDHgf64" mask="url(#eEc4CUyDHgf77)"><g id="eEc4CUyDHgf65"><g id="eEc4CUyDHgf66" fill="none" stroke="#FFF" stroke-width="2" stroke-linecap="round" stroke-linejoin="round"><path id="eEc4CUyDHgf67" d="M61.0559,299.644L110.24,348.662"/><path id="eEc4CUyDHgf68" d="M63.8318,230.938L125.312,358.305"/><path id="eEc4CUyDHgf69" d="M51.1399,318.126L130.868,209.644"/><path id="eEc4CUyDHgf70" d="M184.416,261.876L110.24,358.305"/><path id="eEc4CUyDHgf71" d="M178.86,245.403L51.1399,334.599"/><path id="eEc4CUyDHgf72" d="M82.4758,214.465L207.42,330.983"/><path id="eEc4CUyDHgf73" d="M156.648,358.305L66.2119,206.028"/><path id="eEc4CUyDHgf74" d="M115,203.617L184.416,283.974"/><path id="eEc4CUyDHgf75" d="M58.6758,276.34L210.196,344.644"/><path id="eEc4CUyDHgf76" d="M147.128,212.055L90.804,384.823"/></g></g><mask id="eEc4CUyDHgf77" mask-type="alpha"><path id="eEc4CUyDHgf78" d="M98.536,332.546C98.536,332.546,57.556,276.196,63.936,268.461C69.736,261.43,82.936,271.876,94.936,292.368C83.336,268.26,68.136,216.832,81.736,212.412C95.336,207.993,108.136,276.698,107.336,284.734C110.136,261.832,116.38,252.028,123.336,259.019C129.736,265.448,118.336,318.885,122.336,332.546L98.536,332.546Z" fill="#A9C45A" stroke="none" stroke-width="1"/></mask></g></g><path id="eEc4CUyDHgf79" d="M233.7,158.823L233.696,158.821C232.408,158.075,230.762,158.52,230.019,159.813L210.665,193.54C209.922,194.834,210.365,196.488,211.653,197.234L211.656,197.236C212.944,197.981,214.59,197.537,215.333,196.243L234.687,162.516C235.43,161.222,234.988,159.569,233.7,158.823Z" opacity="0.00125" fill="#FFF" stroke="none" stroke-width="1"/><path id="eEc4CUyDHgf80" d="M157.706,285.852L157.702,285.85C156.415,285.103,154.768,285.546,154.025,286.84L134.647,320.553C133.903,321.847,134.345,323.5,135.632,324.247L135.636,324.249C136.923,324.996,138.57,324.553,139.313,323.259L158.691,289.546C159.434,288.253,158.993,286.599,157.706,285.852Z" opacity="0" fill="#FFF" stroke="none" stroke-width="1"/><path id="eEc4CUyDHgf81" d="M283.079,136.924L283.076,136.923C281.712,136.329,280.127,136.958,279.535,138.328L256.021,192.804C255.43,194.174,256.056,195.767,257.42,196.361L257.424,196.362C258.788,196.956,260.373,196.327,260.964,194.957L284.478,140.481C285.07,139.111,284.444,137.518,283.079,136.924Z" opacity="0.24875" fill="#FFF" stroke="none" stroke-width="1"/><path id="eEc4CUyDHgf82" d="M314.875,187.486L314.871,187.485C313.412,187.197,311.997,188.151,311.711,189.617L302.98,234.233C302.693,235.698,303.643,237.12,305.102,237.408L305.106,237.409C306.565,237.697,307.98,236.742,308.267,235.277L316.997,190.66C317.284,189.195,316.334,187.774,314.875,187.486Z" opacity="0" fill="#FFF" stroke="none" stroke-width="1"/><g id="eEc4CUyDHgf83" fill="none" stroke="#1D1E26" stroke-width="2" stroke-linecap="round" stroke-linejoin="round"><path id="eEc4CUyDHgf84" d="M209.508,186.585L240.064,136.189" opacity="0" transform="translate(0 0)"/><path id="eEc4CUyDHgf85" d="M263.4,166.608L246.2,204.376" transform="translate(-35.5962 74.881636)" opacity="0.561111"/><path id="eEc4CUyDHgf86" d="M308.2,278.305L300.6,321.698" transform="translate(20.324 -122.658195)" opacity="0" stroke-dashoffset="44.05" stroke-dasharray="200"/></g><path id="eEc4CUyDHgf87" d="M246.2,123.453C255.4,122.806,271.428,125.799,288.868,131.89C307.212,138.319,322.192,146.439,328.524,152.86" fill="none" stroke="#1D1E26" stroke-width="2" stroke-linecap="round" stroke-linejoin="round"/><g id="eEc4CUyDHgf88"><path id="eEc4CUyDHgf89" d="M299.816,101.025C315.016,106.337,328.504,112.765,339.016,119.322C344.264,101.354,335.016,82.3579,313.268,74.7682C291.52,67.1785,265.268,73.7115,257.816,90.8959C270.1,92.3222,284.648,95.7173,299.816,101.025Z" fill="#FFC000" stroke="none" stroke-width="1"/><g id="eEc4CUyDHgf90" mask="url(#eEc4CUyDHgf103)"><g id="eEc4CUyDHgf91"><g id="eEc4CUyDHgf92" fill="none" stroke="#FFF" stroke-width="2" stroke-linecap="round" stroke-linejoin="round"><path id="eEc4CUyDHgf93" d="M265.5,83.27L279.02,129.708"/><path id="eEc4CUyDHgf94" d="M290.48,43.5132L284.984,140.749"/><path id="eEc4CUyDHgf95" d="M253.16,90.7271L338.76,54.5664"/><path id="eEc4CUyDHgf96" d="M353.864,104.452L275.752,135.426"/><path id="eEc4CUyDHgf97" d="M356.044,92.7241L247.58,100.495"/><path id="eEc4CUyDHgf98" d="M307.48,40.335L344.54,153.554"/><path id="eEc4CUyDHgf99" d="M304.18,151.819L300.38,29.5874"/><path id="eEc4CUyDHgf100" d="M331.084,45.3896L346.376,117.554"/><path id="eEc4CUyDHgf101" d="M271.936,68.6128L341.612,162.631"/><path id="eEc4CUyDHgf102" d="M347.904,61.7422L254.86,144.281"/></g></g><mask id="eEc4CUyDHgf103" mask-type="alpha"><path id="eEc4CUyDHgf104" d="M299.816,101.025C315.016,106.337,328.504,112.765,339.016,119.322C344.264,101.354,335.016,82.3579,313.268,74.7682C291.52,67.1785,265.268,73.7115,257.816,90.8959C270.1,92.3222,284.648,95.7173,299.816,101.025Z" fill="#FFC000" stroke="none" stroke-width="1"/></mask></g></g><g id="eEc4CUyDHgf105"><path id="eEc4CUyDHgf106" d="M240.324,318.986L255.566,310.147L262.366,321.978C263.533,324.008,263.85,326.421,263.246,328.685C262.642,330.949,261.167,332.88,259.145,334.052C257.124,335.224,254.722,335.542,252.468,334.935C250.214,334.329,248.291,332.847,247.124,330.817L240.324,318.986Z" fill="#995A00" stroke="none" stroke-width="1"/><path id="eEc4CUyDHgf107" d="M190.327,334.05C188.305,332.878,186.831,330.947,186.227,328.683C185.623,326.418,185.939,324.006,187.106,321.975L193.906,310.145L209.148,318.984L202.348,330.815C201.181,332.845,199.259,334.326,197.004,334.933C194.75,335.54,192.348,335.222,190.327,334.05L190.327,334.05Z" fill="#995A00" stroke="none" stroke-width="1"/><g id="eEc4CUyDHgf108" transform="matrix(0.998077 -0.061982 0.061982 0.998077 -14.595589 12.48881)"><path id="eEc4CUyDHgf109" d="M194,241.5L169,218" fill="none" stroke="#995A00" stroke-width="3" stroke-linecap="round"/><path id="eEc4CUyDHgf110" d="M167.732,226.675C173.034,226.675,177.332,222.358,177.332,217.033C177.332,211.707,173.034,207.39,167.732,207.39C162.43,207.39,158.132,211.707,158.132,217.033C158.132,222.358,162.43,226.675,167.732,226.675Z" fill="#FFC000" stroke="none" stroke-width="1"/></g><g id="eEc4CUyDHgf111" transform="matrix(0.992317 -0.123725 0.123725 0.992317 -27.882396 34.016561)"><path id="eEc4CUyDHgf112" d="M259.939,240.939L282.939,217.939" fill="none" stroke="#995A00" stroke-width="3" stroke-linecap="round"/><path id="eEc4CUyDHgf113" d="M282,226.675C287.302,226.675,291.6,222.358,291.6,217.033C291.6,211.707,287.302,207.39,282,207.39C276.698,207.39,272.4,211.707,272.4,217.033C272.4,222.358,276.698,226.675,282,226.675Z" fill="#FFC000" stroke="none" stroke-width="1"/></g><path id="eEc4CUyDHgf114" d="M222.244,324.671C250.19,324.671,272.844,301.916,272.844,273.845C272.844,245.775,250.19,223.02,222.244,223.02C194.298,223.02,171.644,245.775,171.644,273.845C171.644,301.916,194.298,324.671,222.244,324.671Z" fill="#FFC000" stroke="none" stroke-width="1"/><g id="eEc4CUyDHgf115" stroke="none" stroke-width="1"><path id="eEc4CUyDHgf116" d="M224.868,288.55C238.012,288.55,248.668,277.847,248.668,264.644C248.668,251.441,238.012,240.738,224.868,240.738C211.724,240.738,201.068,251.441,201.068,264.644C201.068,277.847,211.724,288.55,224.868,288.55Z" fill="#FFF"/><path id="eEc4CUyDHgf117" d="M224.868,278.506C230.722,278.506,235.468,273.739,235.468,267.858C235.468,261.978,230.722,257.211,224.868,257.211C219.014,257.211,214.268,261.978,214.268,267.858C214.268,273.739,219.014,278.506,224.868,278.506Z" fill="#1D1E26"/></g><path id="eEc4CUyDHgf118" d="M 224.868 240.738 C 222.547 240.689988 219.718938 241.212912 219 241.692487 L 230.722948 241.692486 C 230.019 241.241549 227.062948 240.738 224.868 240.738 Z" transform="matrix(1 0 0 .79834 0 48.548)" fill="#FFE699" stroke="none" stroke-width="1"/><path id="eEc4CUyDHgf119" d="M225,302.412C225,302.412,244.6,309.242,253.4,291.162" fill="none" stroke="#1D1E26" stroke-width="4" stroke-linecap="round" stroke-linejoin="round"/></g></g><clipPath id="eEc4CUyDHgf120"><rect id="eEc4CUyDHgf121" width="400" height="360" rx="0" ry="0" fill="#FFF" stroke="none" stroke-width="1"/></clipPath></g><script xmlns:ns1="http://www.w3.org/1999/xlink" ns1:href="https://cdn.svgator.com/ply/91c80d77.js?v=2021-10-11" src="https://cdn.svgator.com/ply/91c80d77.js"/><script><![CDATA[(function(s,i,u,o,c,w,d,t,n,x,e,p){w[o]=w[o]||{};w[o][s]=w[o][s]||[];w[o][s].push(i);e=d.createElementNS(n,t);e.async=true;e.setAttributeNS(x,'href',[u,s,'.','j','s','?','v','=',c].join(''));e.setAttributeNS(null,'src',[u,s,'.','j','s'].join(''));p=d.getElementsByTagName(t)[0];p.parentNode.insertBefore(e,p);})('91c80d77',{"root":"eEc4CUyDHgf1","animations":[{"elements":{"eEc4CUyDHgf4":{"transform":{"data":{"o":{"x":102.633,"y":335.236176,"type":"corner"},"s":{"x":0.98,"y":1},"t":{"x":-102.632998,"y":-335.236176}},"keys":{"r":[{"t":0,"v":0},{"t":1500,"v":-1},{"t":3000,"v":0}]}}},"eEc4CUyDHgf21":{"opacity":[{"t":0,"v":0.5},{"t":1500,"v":1},{"t":3000,"v":0.5}]},"eEc4CUyDHgf23":{"transform":{"data":{"o":{"x":362.045704,"y":193.837,"type":"corner"},"t":{"x":-362.045675,"y":-193.837}},"keys":{"r":[{"t":0,"v":0},{"t":1000,"v":-10},{"t":3000,"v":0}]}}},"eEc4CUyDHgf24":{"transform":{"data":{"o":{"x":339.01,"y":264.644,"type":"corner"},"t":{"x":-339.01,"y":-264.644}},"keys":{"r":[{"t":0,"v":0},{"t":1500,"v":-8},{"t":3000,"v":0}]}}},"eEc4CUyDHgf25":{"transform":{"data":{"o":{"x":386.31488,"y":237.46019,"type":"corner"},"t":{"x":-386.31488,"y":-237.46019}},"keys":{"r":[{"t":0,"v":0},{"t":1600,"v":-5},{"t":1800,"v":0},{"t":3000,"v":0}]}}},"eEc4CUyDHgf40":{"transform":{"data":{"o":{"x":63.636932,"y":263.885,"type":"corner"},"t":{"x":-63.63693,"y":-263.884999}},"keys":{"r":[{"t":0,"v":0},{"t":1500,"v":-7},{"t":3000,"v":0}]}}},"eEc4CUyDHgf41":{"transform":{"data":{"o":{"x":120.852212,"y":245.403,"type":"corner"},"t":{"x":-120.852196,"y":-245.402949}},"keys":{"r":[{"t":0,"v":0},{"t":2000,"v":-5},{"t":3000,"v":0}]}}},"eEc4CUyDHgf42":{"transform":{"data":{"o":{"x":79.778575,"y":206.028,"type":"corner"},"t":{"x":-79.778574,"y":-206.028}},"keys":{"r":[{"t":0,"v":0},{"t":1100,"v":-10},{"t":3000,"v":0}]}}},"eEc4CUyDHgf43":{"transform":{"data":{"o":{"x":318.847672,"y":32.11465,"type":"corner"},"t":{"x":-318.847672,"y":-32.11465}},"keys":{"r":[{"t":0,"v":0},{"t":3000,"v":360}]}}},"eEc4CUyDHgf44":{"transform":{"data":{"o":{"x":390.877747,"y":61.847055,"type":"corner"},"t":{"x":-390.877747,"y":-61.847055}},"keys":{"r":[{"t":0,"v":0},{"t":3000,"v":360}]}}},"eEc4CUyDHgf45":{"transform":{"data":{"o":{"x":355.867752,"y":79.525299,"type":"corner"},"t":{"x":-355.867752,"y":-79.525299}},"keys":{"r":[{"t":0,"v":0},{"t":3000,"v":360,"e":[0.42,0,1,1]}]}}},"eEc4CUyDHgf46":{"transform":{"data":{"o":{"x":222.667938,"y":66.66835,"type":"corner"},"t":{"x":-222.667938,"y":-66.66835}},"keys":{"r":[{"t":0,"v":0},{"t":3000,"v":360,"e":[0.23,1,0.32,1]}]}}},"eEc4CUyDHgf47":{"transform":{"data":{"o":{"x":376.268326,"y":36.935949,"type":"corner"},"t":{"x":-376.268326,"y":-36.935949}},"keys":{"r":[{"t":0,"v":0},{"t":3000,"v":360}]}}},"eEc4CUyDHgf48":{"transform":{"data":{"o":{"x":282.580002,"y":51.47897,"type":"corner"},"t":{"x":-282.580002,"y":-51.47897}},"keys":{"r":[{"t":0,"v":0},{"t":3000,"v":360}]}}},"eEc4CUyDHgf49":{"opacity":[{"t":0,"v":1},{"t":700,"v":0.4},{"t":2000,"v":1}]},"eEc4CUyDHgf50":{"opacity":[{"t":0,"v":1},{"t":1000,"v":0.3},{"t":3000,"v":1}]},"eEc4CUyDHgf51":{"opacity":[{"t":500,"v":0.35},{"t":1500,"v":1},{"t":3000,"v":0.35}]},"eEc4CUyDHgf52":{"opacity":[{"t":1000,"v":0.5},{"t":2000,"v":1},{"t":3000,"v":0.5}]},"eEc4CUyDHgf53":{"opacity":[{"t":0,"v":0.5},{"t":1000,"v":1},{"t":3000,"v":0.5}]},"eEc4CUyDHgf54":{"transform":{"data":{"o":{"x":348.511993,"y":104.323498,"type":"corner"},"t":{"x":-348.511993,"y":-104.323498}},"keys":{"s":[{"t":400,"v":{"x":0.79,"y":0.79}},{"t":1500,"v":{"x":1,"y":1}},{"t":2200,"v":{"x":0.886923,"y":0.886923}},{"t":2800,"v":{"x":0.79,"y":0.79}}]}}},"eEc4CUyDHgf55":{"transform":{"data":{"o":{"x":233.711998,"y":34.81485,"type":"corner"},"t":{"x":-233.711998,"y":-34.81485}},"keys":{"s":[{"t":300,"v":{"x":1,"y":1}},{"t":900,"v":{"x":1.7,"y":1.7}},{"t":1500,"v":{"x":1,"y":1}}]}}},"eEc4CUyDHgf56":{"transform":{"data":{"o":{"x":274.112,"y":19.14495,"type":"corner"},"t":{"x":-274.112,"y":-19.14495}},"keys":{"s":[{"t":500,"v":{"x":1,"y":1}},{"t":1500,"v":{"x":0.6,"y":0.6}},{"t":2500,"v":{"x":1,"y":1}}]}}},"eEc4CUyDHgf57":{"transform":{"data":{"o":{"x":303.59201,"y":62.019802,"type":"corner"},"t":{"x":-303.59201,"y":-62.019802}},"keys":{"s":[{"t":0,"v":{"x":1,"y":1}},{"t":1000,"v":{"x":0.7,"y":0.7}},{"t":1900,"v":{"x":1,"y":1}}]}}},"eEc4CUyDHgf58":{"transform":{"data":{"o":{"x":325.631989,"y":9.620395,"type":"corner"},"t":{"x":-325.631989,"y":-4.620395}},"keys":{"s":[{"t":1000,"v":{"x":1,"y":1}},{"t":1700,"v":{"x":0.8,"y":0.8}},{"t":2500,"v":{"x":1,"y":1}}]}}},"eEc4CUyDHgf59":{"transform":{"data":{"o":{"x":386.952,"y":91.11305,"type":"corner"},"t":{"x":-386.952,"y":-91.11305}},"keys":{"s":[{"t":0,"v":{"x":1,"y":1}},{"t":1000,"v":{"x":0.5,"y":0.5}},{"t":2000,"v":{"x":1,"y":1}}]}}},"eEc4CUyDHgf60":{"transform":{"data":{"o":{"x":259.223999,"y":72.510403,"type":"corner"},"t":{"x":-259.223999,"y":-72.510403}},"keys":{"s":[{"t":200,"v":{"x":1,"y":1}},{"t":1500,"v":{"x":1.6,"y":1.6}},{"t":2800,"v":{"x":1,"y":1}}]}}},"eEc4CUyDHgf61":{"transform":{"data":{"o":{"x":355.863998,"y":47.61565,"type":"corner"},"t":{"x":-355.863998,"y":-47.61565}},"keys":{"s":[{"t":1500,"v":{"x":1,"y":1}},{"t":2300,"v":{"x":0.7,"y":0.7}},{"t":3000,"v":{"x":1,"y":1}}]}}},"eEc4CUyDHgf79":{"opacity":[{"t":0,"v":0.25},{"t":1000,"v":0},{"t":2000,"v":0},{"t":3000,"v":0.25}]},"eEc4CUyDHgf80":{"opacity":[{"t":1000,"v":0},{"t":2000,"v":0.25},{"t":3000,"v":0}]},"eEc4CUyDHgf81":{"opacity":[{"t":0,"v":0},{"t":1000,"v":0.25},{"t":2000,"v":0}]},"eEc4CUyDHgf82":{"opacity":[{"t":1000,"v":0},{"t":2000,"v":0.25},{"t":3000,"v":0}]},"eEc4CUyDHgf84":{"transform":{"data":{"t":{"x":-224.785995,"y":-161.387001}},"keys":{"o":[{"t":1500,"v":{"x":224.785995,"y":161.387001,"type":"corner"}},{"t":3000,"v":{"x":143.773799,"y":294.621501,"type":"corner"}}]}},"opacity":[{"t":100,"v":0},{"t":1500,"v":0},{"t":2200,"v":1},{"t":3000,"v":0}]},"eEc4CUyDHgf85":{"transform":{"data":{"t":{"x":-254.799995,"y":-185.492004}},"keys":{"o":[{"t":0,"v":{"x":267.823995,"y":158.459309,"type":"corner"}},{"t":1500,"v":{"x":194.527211,"y":312.099004,"type":"corner"}}]}},"opacity":[{"t":0,"v":0},{"t":600,"v":1},{"t":1500,"v":0}]},"eEc4CUyDHgf86":{"transform":{"data":{"t":{"x":-304.400009,"y":-300.001495}},"keys":{"o":[{"t":1000,"v":{"x":324.724009,"y":177.3433,"type":"corner"}},{"t":2000,"v":{"x":302.974009,"y":308.082394,"type":"corner"}}]}},"opacity":[{"t":1000,"v":0},{"t":1500,"v":1},{"t":2000,"v":0}]},"eEc4CUyDHgf108":{"transform":{"data":{"o":{"x":194,"y":241.5,"type":"corner"},"t":{"x":-194,"y":-241.499989}},"keys":{"r":[{"t":0,"v":0},{"t":1400,"v":-5},{"t":3000,"v":0}]}}},"eEc4CUyDHgf111":{"transform":{"data":{"o":{"x":259.939001,"y":241.500001,"type":"corner"},"t":{"x":-259.939,"y":-241.500001}},"keys":{"r":[{"t":0,"v":0},{"t":1400,"v":-10},{"t":3000,"v":0}]}}},"eEc4CUyDHgf118":{"d":[{"t":1900,"v":["M",224.868,240.738,"C",222.547,240.689988,219.718938,241.212912,219,241.692487,"L",230.722948,241.692486,"C",230.019,241.241549,227.062948,240.738,224.868,240.738,"Z"]},{"t":2000,"v":["M",224.868,240.738,"C",216.212006,240.586936,205.5946,246.830471,205,253.806447,"L",245,253.806447,"C",243.6848,246.772223,234.4048,240.738001,224.868,240.738,"Z"]},{"t":2100,"v":["M",224.868,240.738,"C",211.724,240.738,201.068,251.441,201.068,264.644,"L",248.668,264.644,"C",248.668,251.441,238.012,240.738,224.868,240.738,"Z"]},{"t":2200,"v":["M",224.868,240.738,"C",211.724,240.738,201.068,251.441,201.068,264.644,"L",248.668,264.644,"C",248.668,251.441,238.012,240.738,224.868,240.738,"Z"]},{"t":2300,"v":["M",224.868,240.738,"C",216.212006,240.586936,205.5946,246.830471,205,253.806447,"L",245,253.806447,"C",243.6848,246.772223,234.4048,240.738001,224.868,240.738,"Z"]},{"t":2400,"v":["M",224.868,240.738,"C",222.547,240.689988,219.718938,241.212912,219,241.692487,"L",230.722948,241.692486,"C",230.019,241.241549,227.062948,240.738,224.868,240.738,"Z"]},{"t":2500,"v":["M",224.868,240.738,"C",222.547,240.689988,219.718938,241.212912,219,241.692487,"L",230.722948,241.692486,"C",230.019,241.241549,227.062948,240.738,224.868,240.738,"Z"]},{"t":2600,"v":["M",224.868,240.738,"C",216.212006,240.586936,205.5946,246.830471,205,253.806447,"L",245,253.806447,"C",243.6848,246.772223,234.4048,240.738001,224.868,240.738,"Z"]},{"t":2700,"v":["M",224.868,240.738,"C",211.724,240.738,201.068,251.441,201.068,264.644,"L",248.668,264.644,"C",248.668,251.441,238.012,240.738,224.868,240.738,"Z"]},{"t":2800,"v":["M",224.868,240.738,"C",211.724,240.738,201.068,251.441,201.068,264.644,"L",248.668,264.644,"C",248.668,251.441,238.012,240.738,224.868,240.738,"Z"]},{"t":2900,"v":["M",224.868,240.738,"C",216.212006,240.586936,205.5946,246.830471,205,253.806447,"L",245,253.806447,"C",243.6848,246.772223,234.4048,240.738001,224.868,240.738,"Z"]},{"t":3000,"v":["M",224.868,240.738,"C",222.547,240.689988,219.718938,241.212912,219,241.692487,"L",230.722948,241.692486,"C",230.019,241.241549,227.062948,240.738,224.868,240.738,"Z"]}]}},"s":"MDWA1M2E2NGRNVXzhmYTA5ZDhjDOWY5NDlhOTlHNNGRXNjU1ZTVViNWI1YjU3NJGQ4Zjk0OWQ5MMDhlOWY5NDlNhOTk0ZDY1WDGVjNTc0ZDk0ORWY5MDlkOGNYOOWY5NDlhOTkH5ZTRkNjVSNWMI1NzRkOTE5NODk3OTc0ZDY1LNWM1NzRkOGMM5N1M5ZjkwOWRQ5OThjOWZVOCTA0ZDY1OTE4LY0E5NzllOTAO1NzRkOWVSOWGI5MDkwOGY0ZPDY1NWNhOA|"}],"options":"MDKAxMDgyMjk3YYVA3YjY4Nzk3PYjI5NDEyOTcOzNzZLNjg2YjUI5ODQ/"},'https://cdn.svgator.com/ply/','__SVGATOR_PLAYER__','2021-10-11',window,document,'script','http://www.w3.org/2000/svg','http://www.w3.org/1999/xlink')]]></script></svg>